<?xml version="1.0" encoding="utf-8"?>
<!-- Generator: Adobe Illustrator 26.5.0, SVG Export Plug-In . SVG Version: 6.00 Build 0)  -->
<svg version="1.1" id="Capa_1" xmlns="http://www.w3.org/2000/svg" xmlns:xlink="http://www.w3.org/1999/xlink" x="0px" y="0px"
	 viewBox="0 0 841.9 595.3" style="enable-background:new 0 0 841.9 595.3;" xml:space="preserve">
<style type="text/css">
	.st0{fill:#1D1D1B;}
</style>
<g>
	<g>
		<polygon class="st0" points="413.1,346.1 357.5,353.9 413.1,140.6 318,393.6 		"/>
		<polygon class="st0" points="428.9,346.1 484.5,353.9 428.9,140.6 524,393.6 		"/>
		<polygon class="st0" points="421,219.8 408.9,290.4 421,314.4 433.2,290.4 		"/>
	</g>
	<g>
		<path class="st0" d="M213.4,449c-1.3,1-2.7,1-4.2,1h-7.1v5.9h-2.1v-14.8h9.1c0.4,0,0.8,0,1.1,0c0.7,0.1,2.8,0.1,4.1,2
			c0.5,0.7,0.8,1.6,0.8,2.5C214.9,446.3,214.8,447.9,213.4,449z M212.1,444c-0.8-1-2.3-1-3.5-1H202v5.4h6.8c1.2,0,2.4,0,3.2-1
			c0.2-0.3,0.5-0.8,0.5-1.7C212.6,445.3,212.6,444.6,212.1,444z"/>
		<path class="st0" d="M248.1,456l-5-5.9h-7.2v5.9h-2.1v-14.8h10.1c1.3,0,1.7,0.1,2.4,0.2c2,0.5,3.1,2.1,3.1,4.1
			c0,0.8-0.2,2.9-2.4,3.8c-0.4,0.1-0.8,0.3-1.6,0.4l5.5,6.3H248.1z M246.8,444.1c-0.6-1.1-1.6-1.2-2.8-1.2h-8.1v5.4h7.3
			c1.2,0,2.6,0,3.4-1.1c0.2-0.3,0.5-0.8,0.5-1.6C247.2,445.3,247.2,444.7,246.8,444.1z"/>
		<path class="st0" d="M269.4,456v-14.8h13.7v1.8h-11.6v4.4h11.3v1.8h-11.3v5h12.1v1.8H269.4z"/>
		<path class="st0" d="M318.7,456l0.1-12.7l-6.1,12.7h-2l-6-12.7l0.1,12.7h-2v-14.8h2.9l6,12.6l6-12.6h2.9V456H318.7z"/>
		<path class="st0" d="M340.6,456v-14.8h2.1V456H340.6z"/>
		<path class="st0" d="M378.5,453.8c-1,1.1-3.3,2.6-7,2.6c-0.4,0-1.2,0-2.3-0.2c-1-0.1-4-0.7-5.7-3.5c-1-1.6-1.1-3.3-1.1-4
			c0-1.7,0.4-3.4,1.5-4.7c0.2-0.3,0.5-0.6,1.1-1.1c1-0.8,3-2.1,6.4-2.1c0.7,0,2.7,0.1,4.6,0.9c1.2,0.6,2.4,1.5,3.2,2.6
			c1.2,1.8,1.3,3.7,1.3,4.4C380.4,449.6,380.3,451.9,378.5,453.8z M377.7,446c-1.6-3.4-5.8-3.4-6.7-3.4c-0.6,0-3.3,0.2-5,1.9
			c-0.3,0.3-0.9,0.9-1.2,2c-0.2,0.7-0.3,1.4-0.3,2.2c0,0.5,0.1,2.1,1.1,3.5c0.2,0.3,0.5,0.7,1.2,1.1c0.9,0.6,2.3,1.3,4.8,1.3
			c0.4,0,1.4,0,2.5-0.3c2.1-0.5,3.6-1.9,4.1-4c0.1-0.3,0.2-0.9,0.2-1.7C378.3,447.3,377.9,446.4,377.7,446z"/>
		<path class="st0" d="M413.5,454c-1.3,1.8-3.8,2.1-4.4,2.2c-0.3,0-1.2,0.1-2.1,0.1c-0.4,0-2.2,0-3.8-0.4c-0.3-0.1-0.9-0.2-1.6-0.5
			c-0.8-0.3-1.3-0.7-1.6-0.9c-0.8-0.6-1.2-1.2-1.4-1.5l2-0.8c0.1,0.1,0.2,0.2,0.3,0.4c0.3,0.3,1,0.9,2,1.3c1.7,0.7,3.7,0.7,4.2,0.7
			c0.4,0,2.6,0.1,4-1c0.9-0.7,1-1.6,1-2c0-0.9-0.5-1.5-1.3-1.8c-1.1-0.5-3.7-0.6-4.8-0.7c-2.8-0.2-4.2-0.4-5.3-1.4
			c-1-0.9-1.1-2-1.1-2.5c0-2.1,1.4-3,2.1-3.4c0.9-0.5,2.5-1,4.9-1c2.9,0,4.7,0.7,5.8,1.4c0.3,0.2,0.5,0.3,0.7,0.5
			c0.5,0.4,0.8,0.9,1,1.1l-1.9,0.8c-0.1-0.1-0.5-0.5-0.9-0.8c-0.8-0.6-2.2-1.2-4.6-1.2c-1.5,0-2.7,0.3-3.2,0.5
			c-1.3,0.5-1.6,1.4-1.6,2c0,0.3,0.1,0.7,0.3,0.9c0.5,0.8,1.6,0.9,2.4,1c1.6,0.2,3.3,0.3,4.9,0.5c2.3,0.3,3.3,0.9,4.1,1.7
			c0.7,0.9,0.8,1.9,0.8,2.3C414.3,452.8,413.8,453.6,413.5,454z"/>
		<path class="st0" d="M457.7,456v-14.8h13.7v1.8h-11.6v4.4h11.3v1.8h-11.3v5h12.1v1.8H457.7z"/>
		<path class="st0" d="M504.6,454c-1.3,1.8-3.8,2.1-4.4,2.2c-0.3,0-1.2,0.1-2.1,0.1c-0.4,0-2.2,0-3.8-0.4c-0.3-0.1-0.9-0.2-1.6-0.5
			c-0.8-0.3-1.3-0.7-1.6-0.9c-0.8-0.6-1.2-1.2-1.4-1.5l2-0.8c0.1,0.1,0.2,0.2,0.3,0.4c0.3,0.3,1,0.9,2,1.3c1.7,0.7,3.7,0.7,4.2,0.7
			c0.4,0,2.6,0.1,4-1c0.9-0.7,1-1.6,1-2c0-0.9-0.5-1.5-1.3-1.8c-1.1-0.5-3.7-0.6-4.8-0.7c-2.8-0.2-4.2-0.4-5.3-1.4c-1-0.9-1-2-1-2.5
			c0-2.1,1.4-3,2.1-3.4c0.9-0.5,2.5-1,4.9-1c2.9,0,4.7,0.7,5.8,1.4c0.3,0.2,0.5,0.3,0.7,0.5c0.5,0.4,0.8,0.9,1,1.1l-1.9,0.8
			c-0.1-0.1-0.5-0.5-0.9-0.8c-0.8-0.6-2.2-1.2-4.6-1.2c-1.5,0-2.7,0.3-3.2,0.5c-1.3,0.5-1.6,1.4-1.6,2c0,0.3,0.1,0.7,0.3,0.9
			c0.5,0.8,1.6,0.9,2.4,1c1.6,0.2,3.3,0.3,4.9,0.5c2.3,0.3,3.3,0.9,4.1,1.7c0.7,0.9,0.8,1.9,0.8,2.3
			C505.4,452.8,504.9,453.6,504.6,454z"/>
		<path class="st0" d="M525,456v-14.8h2.1v13h9.8v1.8H525z"/>
		<path class="st0" d="M569.5,456l-1.8-3.7h-9.1l-1.8,3.7h-2.4l7.7-14.8h2.2L572,456H569.5z M563.2,443.3l-3.7,7.3h7.3L563.2,443.3z
			"/>
		<path class="st0" d="M604.1,456l-11.6-12.3l0,12.3h-2v-14.8h2.2l11.5,12.2l-0.1-12.2h2V456H604.1z"/>
		<path class="st0" d="M639.6,454.2c-2,1.7-4.6,1.8-7.1,1.8h-5.9v-14.8h7.4c0.4,0,0.8,0,1.2,0c0.7,0,2.3,0.1,3.8,1.2
			c2.1,1.4,3,3.7,3,6.1C642.1,450.6,641.3,452.8,639.6,454.2z M636.2,443.1c-0.7-0.2-1.6-0.2-2.3-0.2h-5.2v11.3h4.3
			c0.4,0,0.8,0,1.2,0c0.6,0,2.5-0.1,4-1.4c1.7-1.5,1.8-3.7,1.8-4.4C639.9,445.9,638.7,443.8,636.2,443.1z"/>
	</g>
</g>
</svg>
