<svg id="Capa_1" data-name="Capa 1" xmlns="http://www.w3.org/2000/svg" viewBox="0 0 841.89 595.28"><defs><style>.cls-1{fill:#1d1d1b;}</style></defs><path class="cls-1" d="M107.78,323.05V272.22h48.68v4.17H112.75v17.86h40.39v4.32H112.75v20.24h45.79v4.24Z"/><path class="cls-1" d="M268.85,315.49c-3.17,4.61-10,8.86-22.47,8.86-1.44,0-2.88-.07-4.39-.14-2.16-.15-12.82-.65-19.15-7.42a27.14,27.14,0,0,1-4.32-6.48l5.32-2a16,16,0,0,0,6,7.85c3,1.95,8.07,3.75,16.13,3.75,1.95,0,8.93,0,14.55-3.32,3.09-1.87,5.4-4.6,5.4-8.35a6.7,6.7,0,0,0-2.38-5.33c-3.24-2.66-11.88-3.6-15.62-4.1-3.1-.43-6.2-.79-9.22-1.23-3.24-.5-7.27-1-10.23-2.52a10.38,10.38,0,0,1-6-9.43c0-4.89,3.16-9,7.27-11.3,4.53-2.52,11-3.46,16.13-3.46,3.09,0,12.74.22,20.37,6.48a23.4,23.4,0,0,1,3.46,3.53l-4.61,2.45c-.43-.58-1-1.3-1.51-1.87-4.68-4.76-11.66-6.2-18.07-6.2-1.44,0-8.14,0-13.18,3a10.4,10.4,0,0,0-3.74,3.6,7.53,7.53,0,0,0-.94,3.6c0,3.6,3,5,4,5.47,2.16,1,4.61,1.37,9.43,2,11.09,1.59,18.15,2.31,22.61,4.25s7.56,5.76,7.56,10.8A13.64,13.64,0,0,1,268.85,315.49Z"/><path class="cls-1" d="M338.25,323.05V272.22h5v46.59h37v4.24Z"/><path class="cls-1" d="M608.11,323.05,564.55,278.7v44.35H560V272.22h4.54l43.56,44.57V272.22h4.54v50.83Z"/><path class="cls-1" d="M733.1,305.7a22.24,22.24,0,0,1-12,14.76c-5.19,2.38-10.51,2.59-16,2.59h-23V272.22h25.42c1.51,0,3,0,4.54.14a22.56,22.56,0,0,1,13.39,5.11c8.21,6.77,8.64,17.14,8.64,20.31A31.24,31.24,0,0,1,733.1,305.7Zm-16.27-27.86a24,24,0,0,0-9.29-1.45H687.16v42.42h16.2c6.84,0,14.55-.15,19.88-5.19C726,311,729,306.42,729,298.07,729,289.5,725.4,281,716.83,277.84Z"/><polygon class="cls-1" points="465.27 324.12 446.64 326.74 465.27 255.22 433.39 340.05 465.27 324.12"/><polygon class="cls-1" points="470.58 324.12 489.2 326.74 470.58 255.22 502.46 340.05 470.58 324.12"/><polygon class="cls-1" points="467.93 281.76 463.86 305.45 467.93 313.49 472 305.45 467.93 281.76"/></svg>